<svg width="70" height="63" viewBox="0 0 70 63" fill="none" xmlns="http://www.w3.org/2000/svg">
<path d="M69.0239 4.7271C68.2271 3.05845 66.7918 1.68498 64.9837 0.860437C62.9119 -0.0878952 60.5505 -0.258686 58.3341 0.379688C56.1176 1.01806 54.3133 2.38882 53.2541 4.23872C52.0511 6.33497 51.9842 8.79372 53.0391 10.9292L38.628 28.1763H29.6249C32.2366 26.3211 33.9826 24.0863 35.0262 21.3026C36.271 17.9821 36.3903 14.2587 36.1866 9.68951C36.1706 9.33046 35.9245 9.01164 35.5545 8.87038C35.1846 8.72924 34.7565 8.79089 34.4549 9.02874C30.2137 12.3749 29.0925 13.1301 25.7641 14.2728C25.2267 14.4573 24.9585 14.9958 25.1652 15.4757C25.3717 15.9557 25.9746 16.1951 26.512 16.0106C29.7531 14.8979 31.2247 14.0043 34.1664 11.7308C34.3068 19.7177 32.8022 24.6082 25.9144 28.1761H21.0898L20.9776 27.1598L26.1383 22.1198C26.5268 21.7405 26.4973 21.1516 26.0725 20.8046C25.6478 20.4577 24.9885 20.4838 24.5999 20.8633L20.5053 24.8621C19.9427 23.3064 18.8779 21.9263 17.3601 20.769C18.4654 19.4818 20.0414 18.3966 22.0613 17.5376C22.5811 17.3167 22.8018 16.7611 22.5542 16.297C22.3068 15.8327 21.6846 15.6354 21.1651 15.8567C18.8228 16.8526 16.981 18.1352 15.6722 19.6754C14.6567 19.1159 13.5055 18.6306 12.226 18.2284C7.37112 16.7034 6.81824 16.404 2.36487 12.8891C2.06342 12.6512 1.63536 12.5894 1.26517 12.7306C0.89511 12.8718 0.649048 13.1907 0.633066 13.5499C0.392515 18.9607 0.533594 24.1528 4.37649 28.1765H1.70218C0.763537 28.1765 0 28.8584 0 29.6968V31.1229C0 33.5345 0.327761 35.9314 0.965098 38.2596C0.975294 38.334 0.995546 38.4055 1.02434 38.4736C1.77562 41.1332 2.93249 43.7006 4.47169 46.0938C7.20772 50.3478 11.0911 53.9743 15.7221 56.616V61.3482C15.7221 62.2596 16.5523 63.001 17.5726 63.001H50.106C51.1286 63.001 51.9605 62.2595 51.9605 61.3482V56.6158C56.5914 53.974 60.4748 50.3476 63.2108 46.0936C64.75 43.7003 65.9069 41.133 66.6582 38.4732C66.6869 38.4053 66.7072 38.3338 66.7174 38.2592C67.3548 35.931 67.6825 33.5342 67.6825 31.1225V29.6964C67.6825 28.8581 66.919 28.1761 65.9804 28.1761H58.3017L62.8132 15.4068C65.3725 14.922 67.5679 13.435 68.7704 11.3397C68.8637 11.1769 68.9495 11.0117 69.0255 10.8485C69.959 8.90287 69.9581 6.67139 69.0239 4.7271ZM2.6564 15.5884C5.91858 18.0864 7.10232 18.5925 11.5343 19.9847C12.9841 20.4404 14.2372 21.0124 15.279 21.6833C15.3145 21.7093 15.3517 21.7343 15.392 21.7566C15.394 21.7577 15.3962 21.7584 15.3983 21.7596C17.4306 23.104 18.6251 24.8366 18.8466 26.8309L18.9953 28.1761H15.9253L10.096 24.0469C9.64478 23.7273 8.9894 23.7949 8.6316 24.1978C8.27381 24.6006 8.34944 25.1862 8.80051 25.5056L12.5705 28.1761H7.30457C3.48 25.2024 2.57484 21.3438 2.6564 15.5884ZM49.8757 61.1388H17.8069V57.0379H49.8757V61.1388ZM65.5978 30.0382V31.1227C65.5978 33.2007 65.3467 35.2401 64.8637 37.2144L36.1293 37.2111C35.5536 37.2111 35.0869 37.6278 35.0869 38.1419C35.0869 38.656 35.5534 39.0729 36.1291 39.073L64.3337 39.0764C62.1858 45.6624 57.3884 51.3875 50.6173 55.1761H17.0655C10.2942 51.3875 5.49686 45.6624 3.34912 39.0764L31.3623 39.073C31.9379 39.073 32.4046 38.6562 32.4046 38.1419C32.4044 37.6278 31.9378 37.2111 31.362 37.2111L2.81883 37.2144C2.3358 35.2401 2.08478 33.2007 2.08478 31.1227V30.0382H65.5978ZM56.1157 28.1763H41.2295L54.2019 12.6509C54.966 13.507 55.9264 14.2104 57.037 14.7185C58.1462 15.2259 59.346 15.5104 60.5713 15.5653L56.1157 28.1763ZM67.1073 10.1194C67.1057 10.123 67.1039 10.1266 67.1022 10.1303C67.047 10.2494 66.9839 10.3708 66.915 10.491C65.9215 12.2222 64.0365 13.4086 61.8746 13.6645C60.5358 13.8207 59.1916 13.6124 57.9875 13.0615C56.7817 12.5099 55.8078 11.6569 55.1706 10.5937C54.1385 8.87826 54.1158 6.82015 55.1102 5.08739C55.916 3.67996 57.2883 2.6375 58.9742 2.15195C59.6445 1.95889 60.3319 1.86316 61.0164 1.86316C62.0538 1.86316 63.0841 2.08329 64.0344 2.51827C65.4098 3.14544 66.5009 4.18938 67.1073 5.45949C67.8294 6.9624 67.8294 8.61739 67.1073 10.1194Z" fill="black"/>
</svg>
